<svg width="91" height="56" viewBox="0 0 91 56" fill="none" xmlns="http://www.w3.org/2000/svg">
<path fill-rule="evenodd" clip-rule="evenodd" d="M83.3187 0.68294H6.8294C3.43481 0.68294 0.68294 3.43481 0.68294 6.8294V48.4888C0.68294 51.8834 3.43481 54.6352 6.8294 54.6352H83.3187C86.7133 54.6352 89.4652 51.8834 89.4652 48.4888V6.8294C89.4652 3.43481 86.7133 0.68294 83.3187 0.68294ZM6.8294 0C3.05763 0 0 3.05763 0 6.8294V48.4888C0 52.2606 3.05763 55.3182 6.8294 55.3182H83.3187C87.0905 55.3182 90.1481 52.2606 90.1481 48.4888V6.8294C90.1481 3.05763 87.0905 0 83.3187 0H6.8294Z" fill="#40426B"/>
<path fill-rule="evenodd" clip-rule="evenodd" d="M77.1718 19.1224H41.6589V18.4395H77.1718V19.1224Z" fill="#40426B"/>
<path fill-rule="evenodd" clip-rule="evenodd" d="M51.903 33.4642H41.6589V32.7812H51.903V33.4642Z" fill="#40426B"/>
<path fill-rule="evenodd" clip-rule="evenodd" d="M77.1722 33.4642H56.684V32.7812H77.1722V33.4642Z" fill="#40426B"/>
<path fill-rule="evenodd" clip-rule="evenodd" d="M62.1472 25.952H41.6589V25.269H62.1472V25.952Z" fill="#40426B"/>
<path fill-rule="evenodd" clip-rule="evenodd" d="M77.1722 25.952H68.2939V25.269H77.1722V25.952Z" fill="#40426B"/>
<path d="M6.74353 17.6143V36.3383C6.74353 37.8094 7.93384 39.0131 9.41838 39.0131H28.1423C29.6135 39.0131 30.8172 37.8094 30.8172 36.3383V17.6143C30.8172 16.1431 29.6135 14.9395 28.1423 14.9395H9.41838C7.93384 14.9395 6.74353 16.1431 6.74353 17.6143ZM22.7926 22.964C22.7926 25.1841 21.0005 26.9763 18.7804 26.9763C16.5602 26.9763 14.7681 25.1841 14.7681 22.964C14.7681 20.7439 16.5602 18.9517 18.7804 18.9517C21.0005 18.9517 22.7926 20.7439 22.7926 22.964ZM10.7558 33.6634C10.7558 30.9886 16.1055 29.5174 18.7804 29.5174C21.4552 29.5174 26.8049 30.9886 26.8049 33.6634V35.0008H10.7558V33.6634Z" fill="#40426B"/>
</svg>
