<?xml version="1.0" encoding="utf-8"?>
<!-- Generator: Adobe Illustrator 27.5.0, SVG Export Plug-In . SVG Version: 6.00 Build 0)  -->
<svg version="1.1" id="Layer_1" xmlns="http://www.w3.org/2000/svg" xmlns:xlink="http://www.w3.org/1999/xlink" x="0px" y="0px"
	 viewBox="0 0 192.8 192.8" style="enable-background:new 0 0 192.8 192.8;" xml:space="preserve">
<style type="text/css">
	.st0{fill:#FFFFFF;}
</style>
<g>
	<path class="st0" d="M97.3,11.4l-84,47.8v17.2h12.9v59.4h140.1V76.4h13.1V59.6L97.3,11.4z M150.2,120.7H43.3V61.1l54-31.7
		l52.9,31.7V120.7z"/>
	<rect x="68.6" y="69.1" class="st0" width="55.9" height="14.7"/>
	<rect x="68.6" y="91" class="st0" width="55.9" height="14.6"/>
	<path class="st0" d="M108.8,162.7H99v18.7h9.5c7.8,0,12.2-1.7,12.2-9C120.8,164.8,115.8,162.7,108.8,162.7z M108.5,177.3h-4.2
		v-10.6l4.7-0.1c3.3,0,6.3,1.9,6.3,5.7C115.3,176.6,112.5,177.3,108.5,177.3z"/>
	<path class="st0" d="M171.2,168.6c0-4.2-2.2-5.9-7.3-5.9h-13.6v18.7h5.3v-7.8h4.9l5.4,7.8h5.6l-5.4-7.8
		C169.7,173.1,171.2,171.7,171.2,168.6z M163,169.5h-7.5v-2.8h7.7c2.1,0,3.1,0.3,3.1,1.4C166.2,169.5,165.5,169.5,163,169.5z"/>
	<polygon class="st0" points="86.5,174.3 76.8,162.7 70.8,162.7 70.8,181.4 75.8,181.4 75.8,170 85.5,181.4 91.5,181.4 91.5,162.7 
		86.5,162.7 	"/>
	<polygon class="st0" points="27.8,162.7 22.6,162.7 22.6,181.4 41.1,181.4 41.1,177.4 27.8,177.1 	"/>
	<polygon class="st0" points="46.3,181.4 64.5,181.4 64.5,177.4 51.8,177.4 51.8,173.3 62.3,173.3 62.3,169.6 51.8,169.6 
		51.8,166.7 64.5,166.7 64.5,162.7 46.3,162.7 	"/>
	<polygon class="st0" points="126.5,181.4 144.3,181.1 144.3,177.4 131.8,177.4 131.8,173.3 142.5,173.3 142.5,169.6 131.8,169.6 
		131.8,166.7 144.3,166.7 144.3,162.7 126.5,162.7 	"/>
	<path class="st0" d="M68,141.3h-4l-4.7,16.8h3.5l1-3.8H68l1,3.8h3.7L68,141.3z M64.5,151.5l1.4-6.6l1.6,6.6H64.5z"/>
	<path class="st0" d="M43.5,155.7c0.7-1.4,0.9-2.4,0.9-4.5v-3.5c0-4.1-0.9-6.9-5.6-6.9c-4.2,0-5.6,2.3-5.6,6.6v4.5
		c0,5.7,3.2,6,12.9,5.9l0.2-1.2L43.5,155.7z M41,151.9c0,3.1-0.2,3.8-2.1,3.8c-1.6,0-2.1-0.9-2.1-4v-4c0-3.1,0.2-4,2.3-4.1
		c1.7,0,1.9,0.5,1.9,3.8V151.9z"/>
	<path class="st0" d="M134.2,155.9c-1.4,0-2.3-0.9-2.8-2.6l-2.8,0.3c0,2.6,1.6,4.7,5.4,4.7c3,0,5.8-2.1,5.8-4.7c0-4-7.5-5.9-7.5-8.5
		c0-0.9,0.9-1.4,1.9-1.4c1.4,0,2.1,0.9,2.8,2.4l2.3-0.9c-0.2-2.4-1.9-4.3-5.4-4.3c-2.8,0-5.1,1.4-5.1,4.3c0,4.7,7.5,5.9,7.5,9
		C136.3,155.4,135.7,155.9,134.2,155.9z"/>
	<path class="st0" d="M114.5,151.9v-5.2c0-4.2-1.2-5.9-5.6-5.9c-3.5,0-5.6,1.9-5.6,6.4v5.4c0,4.1,1.2,5.7,5.6,5.7
		C113.3,158.3,114.5,156.4,114.5,151.9z M106.8,152.2V147c0-2.2,0.2-3.5,2.1-3.5c1.9,0,2.1,1.6,2.1,3.5v5c0,2.9-0.7,3.8-2.1,3.8
		C107,155.8,106.8,154.6,106.8,152.2z"/>
	<path class="st0" d="M165.8,143.4c1.6,0,2.6,1.2,2.8,2.8l2.3-0.9c-0.2-2.8-2.1-4.5-5.4-4.5c-4.7,0-5.6,2.6-5.6,6.1v5
		c0,5,1.4,6.4,6.1,6.4c3.6,0,4.7-1.7,4.7-3.6v-5.4h-4.9v2.6h1.6v1.9c0,1.4-0.5,2.1-1.6,2.1c-2.3,0-2.6-1.7-2.6-4v-3.8
		C163.2,145.3,163.5,143.4,165.8,143.4z"/>
	<path class="st0" d="M127,141.3h-3.3v9.7c0,3.8-0.2,4.7-2.1,4.7s-2.1-1.4-2.1-5v-9.5l-3.5,0.1v9.7c0,5.7,1,7.5,5.9,7.5
		c3.7,0,5.1-2.1,5.1-7V141.3z"/>
	<polygon class="st0" points="158.2,158.1 158.2,141.3 155.5,141.3 155.5,151.7 151.7,141.3 147.2,141.3 147.2,158.1 150,158.1 
		150,146.7 154,158.1 	"/>
	<path class="st0" d="M47.8,141.3v10.2c0,4.7,0.5,6.9,5.1,6.9c5.4,0,5.6-2.6,5.6-7.3v-9.7h-3.3v9.9c0,3.3-0.5,4.3-2.1,4.3
		c-1.9,0-2.1-0.9-2.1-4.7v-9.5L47.8,141.3z"/>
	<polygon class="st0" points="100.8,158.1 100.8,141.3 97.6,141.3 97.6,147.7 93.6,147.7 93.6,141.3 90.3,141.3 90.3,158.1 
		93.6,158.1 93.6,150.5 97.6,150.5 97.6,158.1 	"/>
	<polygon class="st0" points="30.8,143.9 30.8,141.3 22.3,141.3 22.3,158.1 30.8,158.1 30.8,155.5 25.6,155.5 25.6,150.8 
		30.3,150.8 30.3,148.4 25.6,148.4 25.6,143.9 	"/>
	<polygon class="st0" points="74.1,141.3 74.1,158.1 81.8,158.1 81.8,155.5 77,155.5 77,141.3 	"/>
	<rect x="141.7" y="141.3" class="st0" width="3" height="16.8"/>
</g>
</svg>
