<?xml version="1.0" encoding="UTF-8"?><svg width="48" height="48" viewBox="0 0 48 48" fill="none" xmlns="http://www.w3.org/2000/svg">
<path d="M24 48C37.2548 48 48 37.2548 48 24C48 10.7452 37.2548 0 24 0C10.7452 0 0 10.7452 0 24C0 37.2548 10.7452 48 24 48Z" fill="#e8f5fe"/>
<path d="M12 15.6001H30V30.0001H12L19.2 22.8001L12 15.6001Z" fill="#0091da"/>
<path d="M19.2 30H30V19.2L19.2 30Z" fill="#005eb8"/>
<path d="M31.8 15.6001H30V37.2001H31.8V15.6001Z" fill="#002f6c"/>
<path d="M31.2 20.4C33.851 20.4 36 18.251 36 15.6C36 12.9491 33.851 10.8 31.2 10.8C28.5491 10.8 26.4 12.9491 26.4 15.6C26.4 18.251 28.5491 20.4 31.2 20.4Z" fill="#ffb81c"/>
<path d="M31.2 18.6001C31.6142 18.6001 31.95 18.2643 31.95 17.8501C31.95 17.4359 31.6142 17.1001 31.2 17.1001C30.7858 17.1001 30.45 17.4359 30.45 17.8501C30.45 18.2643 30.7858 18.6001 31.2 18.6001Z" fill="white"/>
<path d="M30.468 13.5179L30.828 15.9899C30.8249 16.0148 30.8249 16.04 30.828 16.0649C30.8487 16.1446 30.8953 16.2152 30.9605 16.2655C31.0256 16.3159 31.1057 16.3432 31.188 16.3432C31.2703 16.3432 31.3504 16.3159 31.4155 16.2655C31.4807 16.2152 31.5273 16.1446 31.548 16.0649V16.0649C31.5494 16.0389 31.5494 16.0129 31.548 15.9869L31.905 13.5149C31.9195 13.4601 31.9266 13.4036 31.926 13.3469C31.926 13.148 31.847 12.9572 31.7063 12.8166C31.5657 12.6759 31.3749 12.5969 31.176 12.5969C30.9771 12.5969 30.7863 12.6759 30.6457 12.8166C30.505 12.9572 30.426 13.148 30.426 13.3469C30.4254 13.4036 30.4325 13.4601 30.447 13.5149L30.468 13.5179Z" fill="white"/>
</svg>
