<svg width="91" height="54" viewBox="0 0 91 54" fill="none" xmlns="http://www.w3.org/2000/svg">
<path fill-rule="evenodd" clip-rule="evenodd" d="M89.467 11.6605H0V10.9746H89.467V11.6605Z" fill="#40426B"/>
<path fill-rule="evenodd" clip-rule="evenodd" d="M89.467 24.6922H0V24.0063H89.467V24.6922Z" fill="#40426B"/>
<path d="M6.13825 20.6326C5.84321 20.6326 5.56456 20.5976 5.30231 20.5276C5.04415 20.4535 4.82083 20.3465 4.63233 20.2066C4.56677 20.1613 4.52784 20.1078 4.51555 20.0461C4.50325 19.9844 4.5094 19.9268 4.53399 19.8733C4.56267 19.8198 4.60365 19.7848 4.65692 19.7683C4.71019 19.7478 4.77165 19.7601 4.84132 19.8054C5.02571 19.9412 5.2224 20.0379 5.43139 20.0955C5.64037 20.1531 5.87599 20.1819 6.13825 20.1819C6.50704 20.1819 6.77954 20.114 6.95574 19.9782C7.13604 19.8383 7.22619 19.6552 7.22619 19.4288C7.22619 19.2477 7.16063 19.1037 7.0295 18.9967C6.90247 18.8897 6.68734 18.8053 6.38411 18.7436L5.74486 18.614C5.35968 18.5317 5.07079 18.3979 4.87819 18.2127C4.6897 18.0234 4.59545 17.7724 4.59545 17.4596C4.59545 17.2003 4.66102 16.974 4.79214 16.7806C4.92737 16.5871 5.11381 16.4369 5.35148 16.3299C5.58915 16.2229 5.8637 16.1694 6.17513 16.1694C6.43328 16.1694 6.673 16.2065 6.89428 16.2805C7.11965 16.3505 7.32249 16.4575 7.50279 16.6015C7.56016 16.6468 7.59294 16.7003 7.60114 16.762C7.61343 16.8197 7.60523 16.8732 7.57655 16.9225C7.54786 16.9719 7.50689 17.0049 7.45362 17.0213C7.40035 17.0337 7.33683 17.0172 7.26307 16.9719C7.09916 16.8444 6.92706 16.7538 6.74676 16.7003C6.57056 16.6468 6.37796 16.6201 6.16898 16.6201C5.84526 16.6201 5.5871 16.6962 5.39451 16.8485C5.20192 16.9966 5.10562 17.1942 5.10562 17.4411C5.10562 17.6386 5.16504 17.795 5.28387 17.9102C5.4068 18.0255 5.60554 18.1098 5.88009 18.1633L6.51933 18.2991C6.93321 18.3856 7.23849 18.5173 7.43518 18.6942C7.63597 18.8671 7.73636 19.1037 7.73636 19.4041C7.73636 19.6469 7.6708 19.8609 7.53967 20.0461C7.41264 20.2313 7.22824 20.3753 6.98648 20.4782C6.74881 20.5811 6.46606 20.6326 6.13825 20.6326Z" fill="#40426B"/>
<path d="M10.3378 20.6326C9.93623 20.6326 9.58588 20.542 9.28674 20.3609C8.99171 20.1758 8.76223 19.9165 8.59832 19.5831C8.43851 19.2498 8.35861 18.8547 8.35861 18.3979C8.35861 17.9411 8.43851 17.546 8.59832 17.2127C8.75813 16.8793 8.98556 16.6221 9.2806 16.441C9.57973 16.26 9.93213 16.1694 10.3378 16.1694C10.7476 16.1694 11.1 16.26 11.395 16.441C11.6942 16.6221 11.9236 16.8793 12.0834 17.2127C12.2473 17.5419 12.3293 17.9349 12.3293 18.3917C12.3293 18.8485 12.2473 19.2457 12.0834 19.5831C11.9195 19.9165 11.688 20.1758 11.3889 20.3609C11.0938 20.542 10.7435 20.6326 10.3378 20.6326ZM10.3378 20.1819C10.8009 20.1819 11.1594 20.0255 11.4135 19.7128C11.6675 19.4 11.7946 18.9617 11.7946 18.3979C11.7946 17.8341 11.6675 17.3979 11.4135 17.0892C11.1594 16.7765 10.8009 16.6201 10.3378 16.6201C9.88296 16.6201 9.52851 16.7765 9.27445 17.0892C9.02039 17.3979 8.89336 17.8341 8.89336 18.3979C8.89336 18.9576 9.02039 19.3959 9.27445 19.7128C9.52851 20.0255 9.88296 20.1819 10.3378 20.1819Z" fill="#40426B"/>
<path d="M15.1051 20.6326C14.679 20.6326 14.3143 20.542 14.011 20.3609C13.7078 20.1799 13.4742 19.9227 13.3103 19.5893C13.1505 19.256 13.0706 18.8588 13.0706 18.3979C13.0706 17.9411 13.1505 17.546 13.3103 17.2127C13.4742 16.8793 13.7078 16.6221 14.011 16.441C14.3143 16.26 14.679 16.1694 15.1051 16.1694C15.3592 16.1694 15.6009 16.2065 15.8304 16.2805C16.0599 16.3546 16.2586 16.4596 16.4266 16.5954C16.4963 16.6448 16.5352 16.7024 16.5434 16.7682C16.5557 16.8341 16.5455 16.8937 16.5127 16.9472C16.4799 16.9966 16.4328 17.0295 16.3713 17.046C16.3139 17.0584 16.2484 17.0378 16.1746 16.9843C15.8837 16.7497 15.5313 16.6324 15.1174 16.6324C14.6298 16.6324 14.2569 16.7867 13.9987 17.0954C13.7406 17.404 13.6115 17.8382 13.6115 18.3979C13.6115 18.9617 13.7406 19.3979 13.9987 19.7066C14.2569 20.0153 14.6298 20.1696 15.1174 20.1696C15.5313 20.1696 15.8878 20.0502 16.1869 19.8115C16.2607 19.7622 16.3262 19.7436 16.3836 19.756C16.4451 19.7683 16.4901 19.7992 16.5188 19.8486C16.5516 19.898 16.5639 19.9535 16.5557 20.0153C16.5475 20.077 16.5127 20.1325 16.4512 20.1819C16.275 20.3301 16.0722 20.4433 15.8427 20.5214C15.6132 20.5955 15.3674 20.6326 15.1051 20.6326Z" fill="#40426B"/>
<path d="M17.6182 20.6202C17.4502 20.6202 17.3661 20.5317 17.3661 20.3548V16.4472C17.3661 16.2703 17.4502 16.1818 17.6182 16.1818C17.7862 16.1818 17.8702 16.2703 17.8702 16.4472V20.3548C17.8702 20.5317 17.7862 20.6202 17.6182 20.6202Z" fill="#40426B"/>
<path d="M18.8526 20.6202C18.7543 20.6202 18.6867 20.5873 18.6498 20.5214C18.6129 20.4556 18.617 20.3733 18.6621 20.2745L20.3524 16.4102C20.4179 16.2579 20.5183 16.1818 20.6536 16.1818C20.715 16.1818 20.7703 16.2003 20.8195 16.2373C20.8728 16.2703 20.9158 16.3279 20.9486 16.4102L22.6451 20.2745C22.6901 20.3733 22.6963 20.4556 22.6635 20.5214C22.6307 20.5873 22.5652 20.6202 22.4668 20.6202C22.3931 20.6202 22.3336 20.6017 22.2886 20.5647C22.2435 20.5235 22.2066 20.4659 22.1779 20.3918L21.7784 19.4658H19.5226L19.1292 20.3918C19.0636 20.5441 18.9714 20.6202 18.8526 20.6202ZM20.6474 16.8176L19.707 19.0399H21.6001L20.6597 16.8176H20.6474Z" fill="#40426B"/>
<path d="M23.6809 20.577C23.5088 20.577 23.4227 20.4885 23.4227 20.3116V16.4596C23.4227 16.2826 23.5067 16.1941 23.6747 16.1941C23.8427 16.1941 23.9267 16.2826 23.9267 16.4596V20.1325H25.9428C26.0985 20.1325 26.1764 20.2066 26.1764 20.3548C26.1764 20.5029 26.0985 20.577 25.9428 20.577H23.6809Z" fill="#40426B"/>
<path d="M29.7462 20.6326C29.4512 20.6326 29.1725 20.5976 28.9103 20.5276C28.6521 20.4535 28.4288 20.3465 28.2403 20.2066C28.1747 20.1613 28.1358 20.1078 28.1235 20.0461C28.1112 19.9844 28.1174 19.9268 28.1419 19.8733C28.1706 19.8198 28.2116 19.7848 28.2649 19.7683C28.3181 19.7478 28.3796 19.7601 28.4493 19.8054C28.6337 19.9412 28.8304 20.0379 29.0393 20.0955C29.2483 20.1531 29.4839 20.1819 29.7462 20.1819C30.115 20.1819 30.3875 20.114 30.5637 19.9782C30.744 19.8383 30.8341 19.6552 30.8341 19.4288C30.8341 19.2477 30.7686 19.1037 30.6375 18.9967C30.5104 18.8897 30.2953 18.8053 29.9921 18.7436L29.3528 18.614C28.9676 18.5317 28.6787 18.3979 28.4861 18.2127C28.2977 18.0234 28.2034 17.7724 28.2034 17.4596C28.2034 17.2003 28.269 16.974 28.4001 16.7806C28.5353 16.5871 28.7218 16.4369 28.9594 16.3299C29.1971 16.2229 29.4717 16.1694 29.7831 16.1694C30.0412 16.1694 30.281 16.2065 30.5022 16.2805C30.7276 16.3505 30.9304 16.4575 31.1107 16.6015C31.1681 16.6468 31.2009 16.7003 31.2091 16.762C31.2214 16.8197 31.2132 16.8732 31.1845 16.9225C31.1558 16.9719 31.1148 17.0049 31.0616 17.0213C31.0083 17.0337 30.9448 17.0172 30.871 16.9719C30.7071 16.8444 30.535 16.7538 30.3547 16.7003C30.1785 16.6468 29.9859 16.6201 29.7769 16.6201C29.4532 16.6201 29.1951 16.6962 29.0025 16.8485C28.8099 16.9966 28.7136 17.1942 28.7136 17.4411C28.7136 17.6386 28.773 17.795 28.8918 17.9102C29.0148 18.0255 29.2135 18.1098 29.488 18.1633L30.1273 18.2991C30.5412 18.3856 30.8464 18.5173 31.0431 18.6942C31.2439 18.8671 31.3443 19.1037 31.3443 19.4041C31.3443 19.6469 31.2787 19.8609 31.1476 20.0461C31.0206 20.2313 30.8362 20.3753 30.5944 20.4782C30.3568 20.5811 30.074 20.6326 29.7462 20.6326Z" fill="#40426B"/>
<path d="M32.403 20.577C32.2186 20.577 32.1264 20.4844 32.1264 20.2992V16.5028C32.1264 16.3176 32.2186 16.225 32.403 16.225H34.6895C34.8329 16.225 34.9046 16.295 34.9046 16.4349C34.9046 16.5789 34.8329 16.6509 34.6895 16.6509H32.6181V18.1572H34.5604C34.7038 18.1572 34.7755 18.2271 34.7755 18.367C34.7755 18.5111 34.7038 18.5831 34.5604 18.5831H32.6181V20.1511H34.6895C34.8329 20.1511 34.9046 20.221 34.9046 20.3609C34.9046 20.505 34.8329 20.577 34.6895 20.577H32.403Z" fill="#40426B"/>
<path d="M37.5666 20.6326C37.1404 20.6326 36.7757 20.542 36.4725 20.3609C36.1693 20.1799 35.9357 19.9227 35.7718 19.5893C35.612 19.256 35.5321 18.8588 35.5321 18.3979C35.5321 17.9411 35.612 17.546 35.7718 17.2127C35.9357 16.8793 36.1693 16.6221 36.4725 16.441C36.7757 16.26 37.1404 16.1694 37.5666 16.1694C37.8206 16.1694 38.0624 16.2065 38.2919 16.2805C38.5214 16.3546 38.7201 16.4596 38.8881 16.5954C38.9578 16.6448 38.9967 16.7024 39.0049 16.7682C39.0172 16.8341 39.0069 16.8937 38.9742 16.9472C38.9414 16.9966 38.8942 17.0295 38.8328 17.046C38.7754 17.0584 38.7099 17.0378 38.6361 16.9843C38.3452 16.7497 37.9927 16.6324 37.5789 16.6324C37.0912 16.6324 36.7184 16.7867 36.4602 17.0954C36.202 17.404 36.073 17.8382 36.073 18.3979C36.073 18.9617 36.202 19.3979 36.4602 19.7066C36.7184 20.0153 37.0912 20.1696 37.5789 20.1696C37.9927 20.1696 38.3492 20.0502 38.6484 19.8115C38.7221 19.7622 38.7877 19.7436 38.8451 19.756C38.9065 19.7683 38.9516 19.7992 38.9803 19.8486C39.0131 19.898 39.0254 19.9535 39.0172 20.0153C39.009 20.077 38.9742 20.1325 38.9127 20.1819C38.7365 20.3301 38.5336 20.4433 38.3042 20.5214C38.0747 20.5955 37.8288 20.6326 37.5666 20.6326Z" fill="#40426B"/>
<path d="M41.5364 20.6326C40.9668 20.6326 40.5345 20.4823 40.2394 20.1819C39.9444 19.8774 39.7969 19.435 39.7969 18.8547V16.441C39.7969 16.2682 39.8809 16.1818 40.0489 16.1818C40.2169 16.1818 40.3009 16.2682 40.3009 16.441V18.83C40.3009 19.7313 40.7127 20.1819 41.5364 20.1819C42.3518 20.1819 42.7595 19.7313 42.7595 18.83V16.441C42.7595 16.2682 42.8456 16.1818 43.0177 16.1818C43.1816 16.1818 43.2636 16.2682 43.2636 16.441V18.8547C43.2636 19.435 43.116 19.8774 42.821 20.1819C42.5301 20.4823 42.1019 20.6326 41.5364 20.6326Z" fill="#40426B"/>
<path d="M44.5515 20.6202C44.3835 20.6202 44.2995 20.5317 44.2995 20.3548V16.4843C44.2995 16.3114 44.3856 16.225 44.5577 16.225H46.0144C46.4815 16.225 46.838 16.334 47.0839 16.5522C47.3339 16.7703 47.4588 17.081 47.4588 17.4843C47.4588 17.8053 47.3707 18.0687 47.1945 18.2744C47.0224 18.4802 46.7766 18.614 46.457 18.6757C46.6454 18.7415 46.8073 18.902 46.9425 19.1572L47.5326 20.2622C47.5777 20.3486 47.5859 20.4309 47.5572 20.5091C47.5285 20.5832 47.4629 20.6202 47.3605 20.6202C47.2908 20.6202 47.2335 20.6058 47.1884 20.577C47.1433 20.5441 47.1044 20.4947 47.0716 20.4288L46.4016 19.1819C46.3074 19.0049 46.1988 18.8876 46.0759 18.83C45.9529 18.7683 45.7911 18.7374 45.5903 18.7374H44.8035V20.3548C44.8035 20.5317 44.7195 20.6202 44.5515 20.6202ZM44.8035 18.3362H45.9406C46.6209 18.3362 46.961 18.0522 46.961 17.4843C46.961 16.9246 46.6209 16.6448 45.9406 16.6448H44.8035V18.3362Z" fill="#40426B"/>
<path d="M48.6632 20.6202C48.4952 20.6202 48.4112 20.5317 48.4112 20.3548V16.4472C48.4112 16.2703 48.4952 16.1818 48.6632 16.1818C48.8313 16.1818 48.9153 16.2703 48.9153 16.4472V20.3548C48.9153 20.5317 48.8313 20.6202 48.6632 20.6202Z" fill="#40426B"/>
<path d="M51.3053 20.6202C51.1373 20.6202 51.0533 20.5317 51.0533 20.3548V16.6633H49.6703C49.5146 16.6633 49.4367 16.5892 49.4367 16.441C49.4367 16.297 49.5146 16.225 49.6703 16.225H52.9464C53.1021 16.225 53.18 16.297 53.18 16.441C53.18 16.5892 53.1021 16.6633 52.9464 16.6633H51.5634V20.3548C51.5634 20.5317 51.4774 20.6202 51.3053 20.6202Z" fill="#40426B"/>
<path d="M55.0384 20.6202C54.8704 20.6202 54.7864 20.5297 54.7864 20.3486V18.5152L53.3543 16.5398C53.2969 16.4616 53.2846 16.3834 53.3174 16.3052C53.3543 16.2229 53.4239 16.1818 53.5264 16.1818C53.6329 16.1818 53.7251 16.2373 53.803 16.3485L55.0507 18.0707L56.2923 16.3485C56.3743 16.2373 56.4665 16.1818 56.5689 16.1818C56.6673 16.1818 56.7328 16.2209 56.7656 16.2991C56.7984 16.3731 56.784 16.4555 56.7226 16.546L55.2904 18.5275V20.3486C55.2904 20.5297 55.2064 20.6202 55.0384 20.6202Z" fill="#40426B"/>
<path d="M59.2274 20.6202C59.0676 20.6202 58.9877 20.5358 58.9877 20.3671V16.441C58.9877 16.2682 59.0615 16.1818 59.209 16.1818C59.2704 16.1818 59.3176 16.1941 59.3503 16.2188C59.3831 16.2394 59.42 16.2785 59.461 16.3361L61.9934 19.7251V16.4287C61.9934 16.2641 62.0733 16.1818 62.2331 16.1818C62.3847 16.1818 62.4605 16.2641 62.4605 16.4287V20.3733C62.4605 20.5379 62.3929 20.6202 62.2577 20.6202C62.1962 20.6202 62.147 20.6079 62.1102 20.5832C62.0733 20.5585 62.0344 20.5194 61.9934 20.4659L59.461 17.0645V20.3671C59.461 20.5358 59.3831 20.6202 59.2274 20.6202Z" fill="#40426B"/>
<path d="M65.2464 20.6326C64.6768 20.6326 64.2445 20.4823 63.9494 20.1819C63.6544 19.8774 63.5069 19.435 63.5069 18.8547V16.441C63.5069 16.2682 63.5909 16.1818 63.7589 16.1818C63.9269 16.1818 64.0109 16.2682 64.0109 16.441V18.83C64.0109 19.7313 64.4227 20.1819 65.2464 20.1819C66.0618 20.1819 66.4695 19.7313 66.4695 18.83V16.441C66.4695 16.2682 66.5556 16.1818 66.7277 16.1818C66.8916 16.1818 66.9736 16.2682 66.9736 16.441V18.8547C66.9736 19.435 66.826 19.8774 66.531 20.1819C66.2401 20.4823 65.8119 20.6326 65.2464 20.6326Z" fill="#40426B"/>
<path d="M68.2554 20.6202C68.0996 20.6202 68.0218 20.5379 68.0218 20.3733V16.4287C68.0218 16.2641 68.0996 16.1818 68.2554 16.1818C68.3209 16.1818 68.3721 16.1962 68.409 16.225C68.45 16.2497 68.4869 16.2929 68.5197 16.3546L70.1116 19.3671L71.6975 16.3546C71.7302 16.2929 71.7651 16.2497 71.8019 16.225C71.8388 16.1962 71.8921 16.1818 71.9618 16.1818C72.1134 16.1818 72.1892 16.2641 72.1892 16.4287V20.3733C72.1892 20.5379 72.1113 20.6202 71.9556 20.6202C71.7999 20.6202 71.722 20.5379 71.722 20.3733V17.1756L70.3329 19.7992C70.3042 19.8527 70.2735 19.8918 70.2407 19.9165C70.212 19.9371 70.169 19.9473 70.1116 19.9473C70.0543 19.9473 70.0092 19.935 69.9764 19.9103C69.9436 19.8856 69.9149 19.8486 69.8904 19.7992L68.4828 17.1818V20.3733C68.4828 20.5379 68.407 20.6202 68.2554 20.6202Z" fill="#40426B"/>
<path d="M73.5443 20.577C73.3599 20.577 73.2677 20.4844 73.2677 20.2992V16.5028C73.2677 16.3176 73.3599 16.225 73.5443 16.225H75.0011C75.4477 16.225 75.7919 16.3258 76.0337 16.5275C76.2795 16.725 76.4025 17.0028 76.4025 17.3608C76.4025 17.5995 76.341 17.8032 76.2181 17.972C76.0951 18.1407 75.9251 18.2642 75.7079 18.3424C75.9579 18.4082 76.1525 18.5296 76.2918 18.7066C76.4353 18.8835 76.507 19.1078 76.507 19.3794C76.507 19.7663 76.382 20.0626 76.132 20.2683C75.8821 20.4741 75.5297 20.577 75.0748 20.577H73.5443ZM73.7594 18.1695H74.9273C75.5788 18.1695 75.9046 17.9144 75.9046 17.404C75.9046 16.8896 75.5788 16.6324 74.9273 16.6324H73.7594V18.1695ZM73.7594 20.1696H75.0256C75.6813 20.1696 76.0091 19.9041 76.0091 19.3733C76.0091 18.8424 75.6813 18.5769 75.0256 18.5769H73.7594V20.1696Z" fill="#40426B"/>
<path d="M77.6981 20.577C77.5137 20.577 77.4215 20.4844 77.4215 20.2992V16.5028C77.4215 16.3176 77.5137 16.225 77.6981 16.225H79.9846C80.128 16.225 80.1997 16.295 80.1997 16.4349C80.1997 16.5789 80.128 16.6509 79.9846 16.6509H77.9132V18.1572H79.8555C79.9989 18.1572 80.0706 18.2271 80.0706 18.367C80.0706 18.5111 79.9989 18.5831 79.8555 18.5831H77.9132V20.1511H79.9846C80.128 20.1511 80.1997 20.221 80.1997 20.3609C80.1997 20.505 80.128 20.577 79.9846 20.577H77.6981Z" fill="#40426B"/>
<path d="M81.257 20.6202C81.089 20.6202 81.005 20.5317 81.005 20.3548V16.4843C81.005 16.3114 81.091 16.225 81.2631 16.225H82.7199C83.187 16.225 83.5435 16.334 83.7894 16.5522C84.0393 16.7703 84.1643 17.081 84.1643 17.4843C84.1643 17.8053 84.0762 18.0687 83.9 18.2744C83.7279 18.4802 83.4821 18.614 83.1624 18.6757C83.3509 18.7415 83.5128 18.902 83.648 19.1572L84.2381 20.2622C84.2832 20.3486 84.2914 20.4309 84.2627 20.5091C84.234 20.5832 84.1684 20.6202 84.066 20.6202C83.9963 20.6202 83.939 20.6058 83.8939 20.577C83.8488 20.5441 83.8099 20.4947 83.7771 20.4288L83.1071 19.1819C83.0129 19.0049 82.9043 18.8876 82.7813 18.83C82.6584 18.7683 82.4965 18.7374 82.2958 18.7374H81.509V20.3548C81.509 20.5317 81.425 20.6202 81.257 20.6202ZM81.509 18.3362H82.6461C83.3263 18.3362 83.6665 18.0522 83.6665 17.4843C83.6665 16.9246 83.3263 16.6448 82.6461 16.6448H81.509V18.3362Z" fill="#40426B"/>
<path fill-rule="evenodd" clip-rule="evenodd" d="M83.3205 0.661235H6.82954C3.43488 0.661235 0.682955 3.32564 0.682955 6.61235V46.9477C0.682955 50.2344 3.43488 52.8988 6.82954 52.8988H83.3205C86.7151 52.8988 89.467 50.2344 89.467 46.9477V6.61235C89.467 3.32564 86.7151 0.661235 83.3205 0.661235ZM6.82954 0C3.05769 0 0 2.96045 0 6.61235V46.9477C0 50.5996 3.05769 53.56 6.82954 53.56H83.3205C87.0923 53.56 90.15 50.5996 90.15 46.9477V6.61235C90.15 2.96045 87.0923 0 83.3205 0H6.82954Z" fill="#40426B"/>
<path fill-rule="evenodd" clip-rule="evenodd" d="M61.4662 32.9227H25.9525V32.2368H61.4662V32.9227Z" fill="#40426B"/>
<path fill-rule="evenodd" clip-rule="evenodd" d="M46.4412 39.7821H25.9525V39.0962H46.4412V39.7821Z" fill="#40426B"/>
<path fill-rule="evenodd" clip-rule="evenodd" d="M61.4663 39.7821H52.5879V39.0962H61.4663V39.7821Z" fill="#40426B"/>
</svg>
